@startuml

note "使用继承的适配器模式" as N1

Client --> Target : Uses >
Target <|.. Adapter : implements <
Adapter --|> Adaptee : extends >

class Client {
}

interface Target {
    ==
    abstract targetMethod1()
    abstract targetMethod2()
}

class Adaptee {
    ==
    methodA()
    methodB()
    methodC()
}

class Adapter {
    ==
    targetMethod1()
    targetMethod2()
}

@enduml