@startuml

note "使用委托的适配器模式" as N1

Client --> Target : Uses >
Target <|-- Adapter : extends <
Adapter o-- Adaptee : has >

class Client {
}

abstract class Target {
    ==
    abstract targetMethod1()
    abstract targetMethod2()
}

class Adaptee {
    ==
    methodA()
    methodB()
    methodC()
}

class Adapter {
    ==
    targetMethod1()
    targetMethod2()
}

@enduml